<?xml version="1.0" encoding="UTF-8"?>
<!-- Generator: Adobe Illustrator 26.3.1, SVG Export Plug-In . SVG Version: 6.00 Build 0)  -->
<svg width="100" height="24" version="1.1" viewBox="0 0 100 24" xml:space="preserve" xmlns="http://www.w3.org/2000/svg" xmlns:cc="http://creativecommons.org/ns#" xmlns:dc="http://purl.org/dc/elements/1.1/" xmlns:rdf="http://www.w3.org/1999/02/22-rdf-syntax-ns#"><title>wedot-titlebarlogo</title>
<style type="text/css">
	.st0{fill:url(#SVGID_1_);}
	.st1{fill:#039BB3;stroke:#FFFFFF;stroke-width:0.9921;stroke-linecap:round;stroke-linejoin:round;stroke-miterlimit:10;}
	.st2{fill:#95D0D4;stroke:#FFFFFF;stroke-width:0.9921;stroke-miterlimit:10;}
	.st3{fill:#C0E7EA;}
	.st4{fill:none;stroke:#FFFFFF;stroke-width:0.9921;stroke-miterlimit:10;}
	.st5{fill:#666364;}
	.st6{fill:#646464;}
	.st7{fill:#45C8DA;stroke:#FFFFFF;stroke-width:0.9921;stroke-linecap:round;stroke-linejoin:round;stroke-miterlimit:10;}
	.st8{fill:#32BBCB;stroke:#FFFFFF;stroke-width:0.9921;stroke-linecap:round;stroke-linejoin:round;stroke-miterlimit:10;}
	.st9{fill:#019CB2;stroke:#FFFFFF;stroke-width:0.9921;stroke-linecap:round;stroke-linejoin:round;stroke-miterlimit:10;}
	.st10{fill:#0086A1;stroke:#FFFFFF;stroke-width:0.9921;stroke-linecap:round;stroke-linejoin:round;stroke-miterlimit:10;}
	.st11{fill:#3FCADD;stroke:#FFFFFF;stroke-width:0.9921;stroke-linecap:round;stroke-linejoin:round;stroke-miterlimit:10;}
	.st12{fill:#4ACADA;stroke:#FFFFFF;stroke-width:0.9921;stroke-linecap:round;stroke-linejoin:round;stroke-miterlimit:10;}
	.st13{fill:#009CB3;stroke:#FFFFFF;stroke-width:0.9921;stroke-linecap:round;stroke-linejoin:round;stroke-miterlimit:10;}
	.st14{fill:#33BCCC;stroke:#FFFFFF;stroke-width:0.9921;stroke-linecap:round;stroke-linejoin:round;stroke-miterlimit:10;}
	.st15{fill:#43CCD4;stroke:#FFFFFF;stroke-width:0.9921;stroke-linecap:round;stroke-linejoin:round;stroke-miterlimit:10;}
	.st16{fill:#4AC6D8;stroke:#FFFFFF;stroke-width:0.9921;stroke-linecap:round;stroke-linejoin:round;stroke-miterlimit:10;}
	.st17{fill:#039BB2;stroke:#FFFFFF;stroke-width:0.9921;stroke-linecap:round;stroke-linejoin:round;stroke-miterlimit:10;}
	.st18{fill:url(#SVGID_00000031918329305661806560000013481626714713804435_);}
	.st19{fill:url(#SVGID_00000052074692473146166420000014073522574086860445_);}
	.st20{fill:url(#SVGID_00000013891789681534132390000007234508302796126619_);}
	.st21{fill:#D9EFF4;}
	.st22{fill:#A6A4AA;}
	.st23{fill:url(#SVGID_00000016037355769388288190000018374799492484434086_);}
	.st24{fill:#59BBC7;}
	.st25{fill:url(#SVGID_00000127013451408738508890000006830396803497918890_);}
	.st26{fill:none;}
	.st27{fill:#039BB3;}
	.st28{fill:#95D0D4;}
	.st29{fill:#45C8DA;}
	.st30{fill:#32BBCB;}
	.st31{fill:#019CB2;}
	.st32{fill:#0086A1;}
	.st33{fill:#3FCADD;}
	.st34{fill:#4ACADA;}
	.st35{fill:#009CB3;}
	.st36{fill:#33BCCC;}
	.st37{fill:#43CCD4;}
	.st38{fill:#4AC6D8;}
	.st39{fill:#039BB2;}
	.st40{fill:url(#SVGID_00000183928788038122311590000008959641642962662031_);}
	.st41{fill:url(#SVGID_00000103254394115248746500000007954516804238988197_);}
	.st42{fill:url(#SVGID_00000075882310996937415320000012932923057009567360_);}
	.st43{fill:url(#SVGID_00000183946555333433480600000016128002491720684683_);}
	.st44{fill:url(#SVGID_00000009557397835014597260000001775053676381569927_);}
	.st45{fill:url(#SVGID_00000101781421024456693840000008756121804441578658_);}
	.st46{fill:url(#SVGID_00000099658145593202827290000002423522037563722629_);}
	.st47{fill:url(#SVGID_00000015330298315246003220000005647962077857602709_);}
	.st48{fill:url(#SVGID_00000017489681196715622890000004793329624792334467_);}
</style>



























<g transform="matrix(.12306 0 0 .12306 -3.2483 -12.186)"><path class="st1" d="m152.57 131.78c-21.86-1.36-46.44 12.77-61.46 37.58-19.31 31.92-15.63 69.66 7.99 85.3-2.65-0.93-5.21-2.14-7.67-3.63-24.9-15.07-29.46-53.09-10.19-84.93 17.14-28.31 47.35-42.2 71.33-34.32z"/><path class="st2" d="m182.11 197.11c0 29.37-23.81 53.17-53.18 53.17-15.32 0-29.14-6.48-38.84-16.85-8.9-9.5-14.34-22.27-14.34-36.32 0-29.37 23.81-53.18 53.18-53.18 7.62 0 14.85 1.6 21.4 4.48 18.71 8.24 31.78 26.94 31.78 48.7z"/><path class="st3" d="m164.67 184.73c0 29.37-23.81 53.18-53.18 53.18-7.62 0-14.85-1.6-21.4-4.48-8.9-9.5-14.34-22.27-14.34-36.32 0-29.37 23.81-53.18 53.18-53.18 7.62 0 14.85 1.6 21.4 4.48 8.9 9.5 14.34 22.27 14.34 36.32z"/><path class="st4" d="m182.11 197.11c0 29.37-23.81 53.17-53.18 53.17-15.32 0-29.14-6.48-38.84-16.85-8.9-9.5-14.34-22.27-14.34-36.32 0-29.37 23.81-53.18 53.18-53.18 7.62 0 14.85 1.6 21.4 4.48 18.71 8.24 31.78 26.94 31.78 48.7z"/>
	
		<ellipse class="st5" transform="matrix(.0934 -.9956 .9956 .0934 -100.15 253.21)" cx="88.96" cy="181.6" rx="6.92" ry="2.97"/>
	
		<ellipse class="st5" transform="matrix(.0934 -.9956 .9956 .0934 -70.069 284.48)" cx="121.17" cy="180.72" rx="6.92" ry="2.97"/>
	<path class="st6" d="m95.29 192.33c-0.05-0.65 0.15-1.29 0.57-1.8 0.78-0.95 2.39-2.29 5.38-2.44 2.63-0.13 4.35 0.64 5.35 1.35 0.75 0.52 1.13 1.43 1.03 2.33-0.34 3.22-1.67 11.43-6.33 11.47-4.83 0.05-5.81-8.2-6-10.91z"/>
<path class="st7" d="m160.99 112.95-2.71 3.63c-2.62-0.65-5.29-1.11-8-1.38l2.56-14.86c0.06 0 0.11 0 0.17 0.01h0.01l7.9 6.13-0.1 6.35z"/><path class="st1" d="m57.82 222.62-12.32-5.17v-0.04l11.74-1.7c0.09 2.34 0.28 4.64 0.58 6.91z"/><path class="st1" d="m71.85 255.82-0.18 0.15-1.26 2.44-0.09-0.04-5.18 3.29-9.22-3.6c-0.04-0.06-0.08-0.12-0.11-0.19l11.91-7.53c1.26 1.92 2.63 3.75 4.13 5.48z"/><path class="st7" d="m197.48 116.9-1.77 2.55-6.95 10-0.01 0.01-0.73 0.4-8.57-2.6 9.65-13.78h0.01l1.12-1.61c0.12 0.06 0.24 0.13 0.35 0.21l0.01 0.01z"/><polygon class="st8" points="219.75 151.64 213.91 155.67 207.49 160.1 196.89 154.8 196.89 154.78 211.03 145.57 211.29 145.75"/><path class="st9" d="m221.77 194.58v0.01c-0.02 0.09-0.03 0.17-0.05 0.26l-8.72 3.05-5 1.74-9.23-7.76c0-0.02 0.01-0.03 0-0.05l15.99-3.77 0.19-0.04z"/><polygon class="st10" points="196.4 237.46 202.83 242.01 194.3 240.67 189.81 239.96 181.85 233.24"/><path class="st1" d="m145.6 275.68-1.82 7.56-1.45 6.03c-0.03 0.01-0.05 0.02-0.07 0.02l-6.76-3.03-0.35-0.16-0.57-15.64 0.12-0.03z"/><path class="st1" d="m150.12 272.8-4.52 2.88-10.9-5.25c3.95-1.36 7.87-3.05 11.72-5.08l0.05 0.1z"/><polygon class="st10" points="181.71 256.44 180.91 256.16 173.89 243.47 184.38 248.02 185.94 251.69 189.05 259"/><path class="st10" d="m189.81 239.96-5.43 8.06-10.49-4.55-0.03-0.02c2.8-3.19 5.46-6.61 7.94-10.24l0.05 0.03z"/><path class="st7" d="m214.76 188.06c1.3-9.8 1.24-19.41-0.15-28.46l-7.12 0.55-9.06 0.71c-0.43-2.06-0.94-4.08-1.54-6.06l-0.01-0.01h0.01v-0.01l14.14-9.21 0.26 0.18c-2.72-8.2-6.71-15.69-11.92-22.14l-10.61 5.84-0.01 0.01-0.36 0.51-0.37-0.11-3.77 2.07-0.08 0.07c-1.49-1.64-3.09-3.19-4.8-4.64l0.08-0.1 9.65-13.78h0.01l1.12-1.61c-4.47-2.66-19.14-8.19-21.77-8.95l-7.47 10.03-2.71 3.63c-2.62-0.65-5.29-1.11-8-1.38l2.56-14.86c-9.46-0.43-19.23 1.03-28.86 4.24l-1.43 13.84 0.09 0.27c-2.15 0.73-4.29 1.56-6.41 2.5-1.64 0.71-3.27 1.49-4.88 2.33l-0.23-0.43-4.9-10.53c-8.83 5.05-17.28 11.58-24.97 19.44l0.18 0.18 4.08 11.13c-2.91 3.12-5.69 6.48-8.29 10.06l-0.08-0.03-9.5-4.83c-1.17 1.7-2.31 3.43-3.42 5.21-4.08 6.54-7.48 13.26-10.21 20.05l0.07 0.03 9.36 5.09c-1.24 3.27-2.28 6.54-3.14 9.82v0.01l-11.57 1.37c-2.28 9.25-3.34 18.45-3.23 27.32l11.74-1.7c0.09 2.34 0.28 4.64 0.58 6.91 0.09 0.7 0.19 1.39 0.3 2.08l-11.1 8.62c1.64 8.87 4.58 17.17 8.79 24.55l11.91-7.53c1.26 1.92 2.63 3.75 4.13 5.48l-0.18 0.15-1.26 2.44-5.84 11.3-0.09 0.08c3.74 4.08 8.03 7.68 12.85 10.69 3.19 1.99 6.5 3.66 9.92 5.01l0.06-0.15 7.76-13.74 0.04-0.12c2.98 0.98 6.03 1.7 9.15 2.14l0.03 2.31 0.16 13.39 1.8 0.5h0.01c9.55 0.73 19.45-0.52 29.24-3.56l-0.35-0.16-0.57-15.64v-0.09l0.12 0.06c3.95-1.36 7.87-3.05 11.72-5.08l0.05 0.1 3.65 7.35 2.74 5.53 0.77 0.14c10-5.52 19.54-12.93 28.08-22.03l-0.8-0.28-7.02-12.69-0.03-0.02c2.8-3.19 5.46-6.61 7.94-10.24l0.05 0.03 14.55 4.22c0.2-0.29 0.38-0.59 0.57-0.89 5.73-9.18 10.12-18.72 13.2-28.31l-0.28-0.16-4.19-1.82-9.19-3.99-0.1-0.03c0.99-3.47 1.78-6.93 2.36-10.38l-0.05-0.04 0.05-0.01zm-43.37 32.6c-17.37 28.7-48.16 42.57-72.29 34-2.65-0.93-5.21-2.14-7.67-3.63-24.9-15.07-29.46-53.09-10.19-84.93 17.14-28.31 47.35-42.2 71.33-34.32h0.02c2.98 0.98 5.86 2.3 8.61 3.96 24.9 15.07 29.46 53.09 10.19 84.92z"/><path class="st11" d="m116.23 121.19c-1.64 0.71-3.27 1.49-4.88 2.33l-0.23-0.43-4.9-10.53c0.05-0.02 0.09-0.05 0.14-0.08l9.65 8.21z"/><path class="st1" d="m104.29 275.93-8.84 12.13-0.01 0.05c-0.95-0.23-1.9-0.49-2.84-0.77-1.81-0.53-3.59-1.15-5.35-1.85l0.06-0.15 7.76-13.74 0.04-0.12c2.98 0.98 6.03 1.7 9.15 2.14z"/><path class="st12" d="m188.02 129.86-3.77 2.07-0.08 0.07c-1.49-1.64-3.09-3.19-4.8-4.64l0.08-0.1z"/><path class="st1" d="m142.26 289.29c-8.54 2.56-17.15 3.76-25.52 3.48v-0.04l-10.48-2.91c9.55 0.73 19.45-0.52 29.24-3.56z"/><path class="st10" d="m189.29 259.22c-8 8.53-16.89 15.57-26.2 20.97h-0.01l-9.45-1.72c10-5.52 19.54-12.93 28.08-22.03l7.34 2.56z"/><path class="st13" d="m208 199.64s-1.33 5.11-2.27 6.56l-0.03 0.08-9.19-3.99-0.1-0.03c0.99-3.47 1.78-6.93 2.36-10.38z"/><path class="st14" d="m221.77 194.58-6.82-6.56-0.19 0.04c1.3-9.8 1.24-19.41-0.15-28.46l0.08-0.01 7.94 6.16c1.08 9.22 0.8 18.95-0.86 28.83z" stroke="#fff" stroke-width=".992"/><path class="st15" d="m207.49 160.1v0.05l-9.06 0.71c-0.43-2.06-0.94-4.08-1.54-6.06z"/><path class="st16" d="m219.82 151.62-0.07 0.02-8.46-5.89c-2.72-8.2-6.71-15.69-11.92-22.14l0.04-0.02 11.73 8.62c3.77 5.88 6.67 12.41 8.68 19.41z"/><path class="st17" d="m217.33 212.28c-3.05 9.17-7.31 18.29-12.79 27.07-0.56 0.9-1.13 1.78-1.71 2.66l-6.43-4.55c0.2-0.29 0.38-0.59 0.57-0.89 5.73-9.18 10.12-18.72 13.2-28.31l6.92 3.94z"/></g>
<linearGradient id="SVGID_00000163789698304475203470000008579991115055182754_" x1="246.12" x2="308.23" y1="170.51" y2="232.62" gradientUnits="userSpaceOnUse">
	<stop stop-color="#45C8DA" offset=".25"/><stop stop-color="#73d5e3" offset=".45"/><stop stop-color="#a2e3ec" offset=".6"/><stop stop-color="#d0f1f5" offset=".79771"/><stop stop-color="#f3fbfc" offset="1"/>
	
</linearGradient>

<linearGradient id="SVGID_00000175305928514449291890000003713836498628936102_" x1="313.3" x2="353.85" y1="177.35" y2="217.9" gradientUnits="userSpaceOnUse">
	<stop stop-color="#45C8DA" offset=".25"/>
	<stop stop-color="#73d5e3" offset=".45"/>
	<stop stop-color="#a2e3ec" offset=".6"/>
	<stop stop-color="#d0f1f5" offset=".8"/><stop stop-color="#f3fbfc" offset="1"/>
	
	
</linearGradient>

<linearGradient id="SVGID_00000173848438352162319410000016985232516233593790_" x1="499.94" x2="543.73" y1="165.77" y2="209.57" gradientUnits="userSpaceOnUse">
	<stop stop-color="#45C8DA" offset=".25"/><stop stop-color="#73d5e3" offset=".45"/><stop stop-color="#a2e3ec" offset=".6"/><stop stop-color="#d0f1f5" offset=".8"/><stop stop-color="#f3fbfc" offset="1"/>
	
	
	
	
	
	
</linearGradient>


<linearGradient id="SVGID_00000137122532643017480800000003183249135205298071_" x1="365.96" x2="413.09" y1="174.9" y2="222.02" gradientUnits="userSpaceOnUse">
	<stop stop-color="#45C8DA" offset=".25"/><stop stop-color="#73d5e3" offset=".45"/><stop stop-color="#a2e3ec" offset=".6"/><stop stop-color="#d0f1f5" offset=".8"/><stop stop-color="#f3fbfc" offset="1"/>
	
	
	
	
	
</linearGradient>
<g transform="matrix(.23942 0 0 .23942 -31.82 -35.452)"><path d="m550.57 173.12v7.49l-3.74 3.74h-17.1v39.22l-3.35 3.35h-8.59l-3.35-3.35v-39.22h-18.11l-3.74-3.74v-7.49l3.74-3.74h50.5z" fill="url(#SVGID_00000173848438352162319410000016985232516233593790_)"/>
	
		<linearGradient id="SVGID_1_" x1="440.32" x2="480.69" y1="177.8" y2="218.18" gradientUnits="userSpaceOnUse">
			<stop stop-color="#45C8DA" offset=".25"/><stop stop-color="#73d5e3" offset=".45"/><stop stop-color="#a2e3ec" offset=".6"/><stop stop-color="#d0f1f5" offset=".8"/><stop stop-color="#f3fbfc" offset="1"/>
			
			
			
			
			
			
		</linearGradient>
		<path class="st0" d="m460.51 169.44c-15.77 0-28.55 12.78-28.55 28.55s12.78 28.55 28.55 28.55 28.55-12.78 28.55-28.55c-0.01-15.77-12.79-28.55-28.55-28.55zm16.06 31.14h-3c-0.17 0.97-0.44 1.91-0.82 2.8l2.6 1.5c-0.55 1.23-1.24 2.38-2.05 3.42l-2.6-1.51c-0.61 0.74-1.3 1.41-2.05 1.99l1.5 2.6c-1.06 0.79-2.22 1.45-3.45 1.97l-1.5-2.61c-0.87 0.34-1.79 0.59-2.74 0.74v2.99c-0.67 0.09-1.36 0.13-2.05 0.13-0.65 0-1.3-0.04-1.93-0.11v-3c-0.96-0.14-1.88-0.38-2.75-0.71l-1.5 2.61c-1.24-0.51-2.41-1.17-3.48-1.95l1.5-2.59c-0.77-0.59-1.47-1.27-2.09-2.01l-2.6 1.5c-0.82-1.04-1.52-2.19-2.06-3.41l2.59-1.49c-0.39-0.91-0.67-1.86-0.84-2.86h-3c-0.11-0.76-0.17-1.53-0.17-2.31 0-0.56 0.03-1.12 0.08-1.67h3c0.12-1.04 0.37-2.03 0.72-2.98l-2.6-1.5c0.5-1.24 1.16-2.41 1.94-3.48l2.59 1.5c0.64-0.83 1.38-1.58 2.19-2.24l-1.5-2.6c1.05-0.8 2.2-1.48 3.43-2.02l1.5 2.6c0.96-0.39 1.98-0.67 3.05-0.82v-3c0.63-0.07 1.28-0.11 1.93-0.11 0.69 0 1.38 0.04 2.05 0.13v2.99c1.06 0.17 2.07 0.46 3.03 0.85l1.5-2.59c1.22 0.54 2.37 1.22 3.41 2.04l-1.5 2.59c0.8 0.66 1.52 1.41 2.14 2.23l2.59-1.5c0.78 1.07 1.43 2.24 1.93 3.49l-2.6 1.5c0.34 0.93 0.58 1.91 0.7 2.92h3c0.05 0.55 0.08 1.11 0.08 1.67 0 0.78-0.06 1.55-0.17 2.31z" fill="url(#SVGID_1_)"/>
	

	<circle class="st21" cx="460.41" cy="198.27" r="10.14"/>
	
		<ellipse class="st22" cx="457.15" cy="195.73" rx=".63" ry="1.27"/>
		<ellipse class="st22" cx="463.5" cy="195.73" rx=".63" ry="1.27"/>
		<path class="st22" d="m459.61 198.33h1.49c0.39 0 0.63 0.42 0.44 0.76l-0.72 1.27c-0.19 0.34-0.67 0.34-0.87 0.01l-0.77-1.27c-0.21-0.33 0.04-0.77 0.43-0.77z"/>
	
<path d="m396.05 169.76h-24.94c-1.47 1.47-2.3 2.29-3.76 3.76v49.89c1.46 1.47 2.29 2.29 3.76 3.76h24.94c7.93 0 15.11-3.21 20.3-8.41 5.2-5.19 8.41-12.37 8.41-20.3 0-15.85-12.85-28.7-28.71-28.7zm0 43.24h-11.3c-1.26-1.27-1.97-1.97-3.23-3.23v-22.61l3.23-3.23h10.88c7.82 0 14.55 6 14.94 13.8 0.41 8.35-6.26 15.27-14.52 15.27z" fill="url(#SVGID_00000137122532643017480800000003183249135205298071_)"/><path d="m362.11 193.93c-1.83-14.1-13.89-24.99-28.49-24.99-15.87 0-28.74 12.86-28.74 28.73s12.87 28.74 28.74 28.74c6.98 0 13.37-2.49 18.34-6.62l-0.15-4.18-7.1-7.39h-2.54c-2.34 1.89-5.31 3.03-8.55 3.03-6.14 0-11.32-4.07-13-9.66h37.82l3.9-3.11c0.02-0.27 0.02-0.54 0.02-0.81 0-1.27-0.08-2.52-0.25-3.74zm-41.57 0.08c1.6-5.72 6.85-9.92 13.08-9.92s11.48 4.2 13.07 9.92z" fill="url(#SVGID_00000175305928514449291890000003713836498628936102_)"/><polygon points="241.73 172.98 245.33 169.47 256.6 169.57 261.05 202.63 267.21 169.66 274.79 169.66 280.95 202.73 285.02 169.47 296.48 169.47 299.39 173.11 293.17 223.95 290.42 227.45 277.35 227.45 270.81 191.26 264.08 227.17 251.39 227.17 248.74 223.66" fill="url(#SVGID_00000163789698304475203470000008579991115055182754_)"/></g>

<metadata><rdf:RDF><cc:Work rdf:about=""><dc:title>wedot-titlebarlogo</dc:title><dc:date>2024.11.17</dc:date><dc:creator><cc:Agent><dc:title>Xiwoof</dc:title></cc:Agent></dc:creator><dc:rights><cc:Agent><dc:title>© Xiwoof, Licensed under CC BY 4.0</dc:title></cc:Agent></dc:rights><cc:license rdf:resource="https://creativecommons.org/licenses/by/4.0/"/></cc:Work></rdf:RDF></metadata></svg>
