<?xml version="1.0" encoding="UTF-8"?>
<!-- Generator: Adobe Illustrator 26.3.1, SVG Export Plug-In . SVG Version: 6.00 Build 0)  -->
<svg width="1024" height="414" version="1.1" viewBox="0 0 1024 414" xml:space="preserve" xmlns="http://www.w3.org/2000/svg" xmlns:cc="http://creativecommons.org/ns#" xmlns:dc="http://purl.org/dc/elements/1.1/" xmlns:rdf="http://www.w3.org/1999/02/22-rdf-syntax-ns#" xmlns:xlink="http://www.w3.org/1999/xlink"><title>wedot-logo</title><defs><linearGradient id="SVGID_00000163789698304475203470000008579991115055182754_-3" x1="246.12" x2="308.23" y1="170.51" y2="232.62" gradientUnits="userSpaceOnUse">
	<stop stop-color="#45C8DA" offset=".25"/><stop stop-color="#73d5e3" stop-opacity=".9" offset=".45"/><stop stop-color="#a2e3ec" stop-opacity=".75" offset=".6"/><stop stop-color="#d0f1f5" stop-opacity=".65" offset=".79771"/><stop stop-color="#f3fbfc" stop-opacity=".5" offset="1"/>
	
</linearGradient><linearGradient id="linearGradient94" x1="499.94" x2="543.73" y1="165.77" y2="209.57" gradientUnits="userSpaceOnUse"><stop stop-color="#45C8DA" offset=".25"/><stop stop-color="#73d5e3" stop-opacity=".9" offset=".45"/><stop stop-color="#a2e3ec" stop-opacity=".75" offset=".6"/><stop stop-color="#d0f1f5" stop-opacity=".65" offset=".8"/><stop stop-color="#f3fbfc" stop-opacity=".5" offset="1"/></linearGradient><linearGradient id="linearGradient95" x1="440.32" x2="480.69" y1="177.8" y2="218.18" gradientUnits="userSpaceOnUse"><stop stop-color="#45C8DA" offset=".25"/><stop stop-color="#73d5e3" stop-opacity=".9" offset=".45"/><stop stop-color="#a2e3ec" stop-opacity=".75" offset=".6"/><stop stop-color="#d0f1f5" stop-opacity=".65" offset=".8"/><stop stop-color="#f3fbfc" stop-opacity=".5" offset="1"/></linearGradient><linearGradient id="linearGradient96" x1="365.96" x2="413.09" y1="174.9" y2="222.02" gradientUnits="userSpaceOnUse"><stop stop-color="#45C8DA" offset=".25"/><stop stop-color="#73d5e3" stop-opacity=".9" offset=".45"/><stop stop-color="#a2e3ec" stop-opacity=".75" offset=".6"/><stop stop-color="#d0f1f5" stop-opacity=".65" offset=".8"/><stop stop-color="#f3fbfc" stop-opacity=".5" offset="1"/></linearGradient><linearGradient id="linearGradient97" x1="313.3" x2="353.85" y1="177.35" y2="217.9" gradientUnits="userSpaceOnUse"><stop stop-color="#45C8DA" offset=".25"/><stop stop-color="#73d5e3" stop-opacity=".9" offset=".45"/><stop stop-color="#a2e3ec" stop-opacity=".75" offset=".6"/><stop stop-color="#d0f1f5" stop-opacity=".65" offset=".8"/><stop stop-color="#f3fbfc" stop-opacity=".5" offset="1"/></linearGradient></defs>
<style type="text/css">
	.st0{fill:url(#SVGID_1_);}
	.st1{fill:#039BB3;stroke:#FFFFFF;stroke-width:0.9921;stroke-linecap:round;stroke-linejoin:round;stroke-miterlimit:10;}
	.st2{fill:#95D0D4;stroke:#FFFFFF;stroke-width:0.9921;stroke-miterlimit:10;}
	.st3{fill:#C0E7EA;}
	.st4{fill:none;stroke:#FFFFFF;stroke-width:0.9921;stroke-miterlimit:10;}
	.st5{fill:#666364;}
	.st6{fill:#646464;}
	.st7{fill:#45C8DA;stroke:#FFFFFF;stroke-width:0.9921;stroke-linecap:round;stroke-linejoin:round;stroke-miterlimit:10;}
	.st8{fill:#32BBCB;stroke:#FFFFFF;stroke-width:0.9921;stroke-linecap:round;stroke-linejoin:round;stroke-miterlimit:10;}
	.st9{fill:#019CB2;stroke:#FFFFFF;stroke-width:0.9921;stroke-linecap:round;stroke-linejoin:round;stroke-miterlimit:10;}
	.st10{fill:#0086A1;stroke:#FFFFFF;stroke-width:0.9921;stroke-linecap:round;stroke-linejoin:round;stroke-miterlimit:10;}
	.st11{fill:#3FCADD;stroke:#FFFFFF;stroke-width:0.9921;stroke-linecap:round;stroke-linejoin:round;stroke-miterlimit:10;}
	.st12{fill:#4ACADA;stroke:#FFFFFF;stroke-width:0.9921;stroke-linecap:round;stroke-linejoin:round;stroke-miterlimit:10;}
	.st13{fill:#009CB3;stroke:#FFFFFF;stroke-width:0.9921;stroke-linecap:round;stroke-linejoin:round;stroke-miterlimit:10;}
	.st14{fill:#33BCCC;stroke:#FFFFFF;stroke-width:0.9921;stroke-linecap:round;stroke-linejoin:round;stroke-miterlimit:10;}
	.st15{fill:#43CCD4;stroke:#FFFFFF;stroke-width:0.9921;stroke-linecap:round;stroke-linejoin:round;stroke-miterlimit:10;}
	.st16{fill:#4AC6D8;stroke:#FFFFFF;stroke-width:0.9921;stroke-linecap:round;stroke-linejoin:round;stroke-miterlimit:10;}
	.st17{fill:#039BB2;stroke:#FFFFFF;stroke-width:0.9921;stroke-linecap:round;stroke-linejoin:round;stroke-miterlimit:10;}
	.st18{fill:url(#SVGID_00000031918329305661806560000013481626714713804435_);}
	.st19{fill:url(#SVGID_00000052074692473146166420000014073522574086860445_);}
	.st20{fill:url(#SVGID_00000013891789681534132390000007234508302796126619_);}
	.st21{fill:#D9EFF4;}
	.st22{fill:#A6A4AA;}
	.st23{fill:url(#SVGID_00000016037355769388288190000018374799492484434086_);}
	.st24{fill:#59BBC7;}
	.st25{fill:url(#SVGID_00000127013451408738508890000006830396803497918890_);}
	.st26{fill:none;}
	.st27{fill:#039BB3;}
	.st28{fill:#95D0D4;}
	.st29{fill:#45C8DA;}
	.st30{fill:#32BBCB;}
	.st31{fill:#019CB2;}
	.st32{fill:#0086A1;}
	.st33{fill:#3FCADD;}
	.st34{fill:#4ACADA;}
	.st35{fill:#009CB3;}
	.st36{fill:#33BCCC;}
	.st37{fill:#43CCD4;}
	.st38{fill:#4AC6D8;}
	.st39{fill:#039BB2;}
	.st40{fill:url(#SVGID_00000183928788038122311590000008959641642962662031_);}
	.st41{fill:url(#SVGID_00000103254394115248746500000007954516804238988197_);}
	.st42{fill:url(#SVGID_00000075882310996937415320000012932923057009567360_);}
	.st43{fill:url(#SVGID_00000183946555333433480600000016128002491720684683_);}
	.st44{fill:url(#SVGID_00000009557397835014597260000001775053676381569927_);}
	.st45{fill:url(#SVGID_00000101781421024456693840000008756121804441578658_);}
	.st46{fill:url(#SVGID_00000099658145593202827290000002423522037563722629_);}
	.st47{fill:url(#SVGID_00000015330298315246003220000005647962077857602709_);}
	.st48{fill:url(#SVGID_00000017489681196715622890000004793329624792334467_);}
</style>



























<g transform="matrix(1.8791 0 0 1.8791 -48.493 -162.35)"><path class="st26" d="m160.94 136.17c-2.67-1.61-5.51-2.92-8.44-3.89-13.67-0.84-27.88 4.27-40.2 13.81 5.24-1.71 10.82-2.65 16.63-2.65 7.51 0 14.78 1.52 21.6 4.52 17.23 7.59 29.06 23.54 31.57 41.84 0.86001-6.01 0.97-12 0.27001-17.83-1.91-15.87-9.52-28.59-21.43-35.8z" fill="none"/><path class="st26" d="m141.51 249.28c-4.04 0.97-8.25 1.5-12.59 1.5-14.8 0-29.09-6.2-39.2-17.01-4.36-4.66-7.8-9.99-10.23-15.74v0.03c1.5 15.81 8.54 28.65 19.82 36.14 13.39 4.75 28.48 2.61 42.2-4.92z" fill="none"/><path class="st27" d="m91.693 250.61c0.62 0.37 1.24 0.73 1.88 1.07 0.21 0.11 0.42 0.21 0.64 0.32 0.43 0.22 0.85 0.44 1.29 0.64 0.02 0.01 0.05 0.02 0.07 0.03-9.66-7.85-15.67-19.95-17.05-34.51-0.1-1.07-0.17-2.15-0.22-3.23-1.99-5.66-3.04-11.67-3.04-17.81 0-22.72 14.19-42.17 34.17-49.99 11.85-9.9 25.67-15.66 39.19-15.92-0.11-0.02-0.22-0.05-0.32-0.07-0.6-0.13-1.2-0.25-1.8-0.36-0.19-0.03-0.38-0.07-0.57-0.1-0.74-0.12-1.48-0.23-2.22-0.31-0.11-0.01-0.23-0.02-0.34-0.03-0.65-0.07-1.3-0.12-1.96-0.16-0.2-0.01-0.41-0.02-0.61-0.03-0.76-0.04-1.52-0.06-2.28-0.06-20.88 0-43.17 13.7-56.84 36.29-19.11 31.54-14.62 69.33 10.01 84.23z" fill="#039bb3"/><path class="st28" d="m170.96 220.41c5.18-8.56 8.73-17.72 10.52-26.92-1.31-19.05-12.89-36.01-30.32-44.14 8.4 9.4 13.51 21.79 13.51 35.39 0 29.37-23.81 53.18-53.18 53.18-7.17 0-13.99-1.43-20.23-4 9.87 10.1 23.53 15.87 37.67 15.87 5.56 0 10.93-0.87 15.96-2.48 10.01-6.25 19.12-15.41 26.07-26.9z" fill="#95d0d4"/><path class="st3" d="m164.67 184.74c0-13.6-5.11-25.99-13.51-35.39-0.34-0.16-0.69-0.33-1.04-0.48-6.7-2.94-13.83-4.44-21.2-4.44-29.05 0-52.68 23.63-52.68 52.68 0 13.42 5.04 26.2 14.21 35.98 0.26 0.28 0.54 0.54 0.81 0.82 6.24 2.57 13.06 4 20.23 4 29.37 0.01 53.18-23.8 53.18-53.17zm-46.46-4.29c0.36-3.8 1.97-6.76 3.61-6.61 1.63 0.15 2.67 3.36 2.31 7.16s-1.97 6.76-3.61 6.61c-1.63-0.15-2.66-3.36-2.31-7.16zm-26.29 1.44c-0.36 3.8-1.97 6.76-3.61 6.61-1.63-0.15-2.67-3.36-2.31-7.16s1.97-6.76 3.61-6.61c1.63 0.15 2.67 3.35 2.31 7.16zm9.38 21.37c-4.84 0.04-5.82-8.21-6.01-10.92-0.05-0.65 0.15-1.29 0.57-1.8 0.78-0.95 2.39-2.29 5.38-2.44 2.63-0.13 4.35 0.64 5.35 1.35 0.75 0.52 1.13 1.43 1.03 2.33-0.34 3.23-1.67 11.44-6.32 11.48z" fill="#c0e7ea"/><path class="st5" d="m89.613 174.72c-1.63-0.15-3.25 2.81-3.61 6.61s0.68 7.01 2.31 7.16 3.25-2.81 3.61-6.61-0.68-7-2.31-7.16z" fill="#666364"/><path class="st5" d="m120.53 187.61c1.63 0.15 3.25-2.81 3.61-6.61s-0.68001-7.01-2.31-7.16c-1.63-0.15-3.25 2.81-3.61 6.61-0.35999 3.8 0.67001 7.01 2.31 7.16z" fill="#666364"/><path class="st6" d="m106.59 189.46c-1.01-0.7-2.73-1.47-5.35-1.35-2.99 0.14-4.61 1.49-5.38 2.44-0.41 0.51-0.61 1.14-0.57 1.8 0.19 2.7 1.16 10.96 6.01 10.92 4.65-0.04 5.98-8.25 6.33-11.47 0.09-0.92-0.29-1.82-1.04-2.34z" fill="#646464"/><path class="st29" d="m153.21 101.13-2.35 13.64c2.44 0.27 4.86 0.69 7.22 1.26l2.27-3.04c-0.01-0.05-0.02-0.1-0.02-0.15l0.1-6.1z" fill="#45c8da"/><path class="st27" d="m56.773 216.29-9.5 1.38 9.95 4.18c-0.06-0.51-0.11-1.04-0.16-1.56-0.03-0.31-0.07-0.62-0.09-0.94-0.09-1.02-0.16-2.03-0.2-3.06z" fill="#039bb3"/><path class="st27" d="m67.573 251.03-10.81 6.84 8.32 3.24 4.97-3.16c0.02-0.01 0.03-0.02 0.05-0.03l1.09-2.11c-1.26-1.47-2.48-3.08-3.62-4.78z" fill="#039bb3"/><path class="st29" d="m190.37 112.55-0.85 1.22c-0.02 0.03-0.04 0.05-0.06 0.07l-9.21 13.15 7.71 2.34 0.46-0.25 8.37-12.05z" fill="#45c8da"/><polygon class="st30" transform="translate(-6.9175 .010493)" points="211.91 158.29 214.37 159.52 225.8 151.63 217.94 146.16 204.79 154.73" fill="#32bbcb"/><polygon class="st31" transform="translate(-6.9175 .010493)" points="206.72 192.09 215.02 199.08 227.96 194.56 225.55 192.25 221.72 188.56" fill="#019cb2"/><polygon class="st32" transform="translate(-6.9175 .010493)" points="196.94 239.49 207.73 241.19 203.1 237.91 190.87 234.36" fill="#0086a1"/><polygon class="st27" transform="translate(-6.9175 .010493)" points="147.31 287.91 148.9 288.62 151.94 275.95 142.02 271.17 142.55 285.77" fill="#039bb3"/><path class="st27" d="m146.2 266.03c-0.87 0.45-1.74 0.88-2.62 1.3-0.3 0.14-0.6 0.27-0.9 0.41-0.58 0.27-1.17 0.54-1.75 0.8-0.36 0.16-0.73 0.31-1.1 0.46-0.53 0.22-1.06 0.44-1.59 0.65-0.39 0.15-0.78 0.3-1.17 0.44-0.36 0.14-0.72 0.28-1.08 0.41l9.58 4.61 3.91-2.49z" fill="#039bb3"/><polygon class="st32" transform="translate(-6.9175 .010493)" points="195.07 258.16 190.92 248.39 181.95 244.5 188.17 255.75" fill="#0086a1"/><path class="st32" d="m189.15 240.06-7.25-6.12c-0.46 0.67-0.93 1.33-1.41 1.99-0.1 0.13-0.19 0.27-0.28 0.4-0.6 0.82-1.21 1.63-1.83 2.43-0.12 0.16-0.25 0.32-0.38 0.48-0.5 0.63-0.99 1.26-1.5 1.88-0.22 0.27-0.44 0.52-0.66 0.79-0.39 0.46-0.77 0.93-1.16 1.38l9.53 4.13z" fill="#0086a1"/><path class="st29" d="m153.54 277.96c0.88-0.49 1.75-1 2.62-1.52 0.34001-0.2 0.69-0.39 1.03-0.6 1.23-0.75 2.45-1.52 3.65-2.32 0.28999-0.19 0.56-0.39 0.84999-0.59 0.91-0.62 1.83-1.24 2.73-1.89 0.45-0.32 0.89-0.67 1.33-1 0.72999-0.54 1.45-1.07 2.17-1.63 0.49-0.39 0.98-0.79 1.47-1.19 0.65-0.53 1.31-1.05 1.95-1.59 0.51-0.43 1.01-0.88 1.51-1.32 0.61-0.53 1.22-1.06 1.83-1.61 0.51-0.47 1.01-0.95 1.51-1.43 0.58-0.55 1.17-1.09 1.74-1.66 0.5-0.49 0.99-1 1.48-1.5 0.47-0.48 0.95-0.96 1.42-1.45l-0.07-0.02c-0.12-0.04-0.21-0.12-0.27-0.23l-7-12.65c-0.05-0.07-0.09-0.15-0.1-0.23-0.02-0.14 0.01-0.29 0.1-0.4 2.82-3.21 5.47-6.64 7.9-10.19 0.15-0.22 0.44-0.28 0.67-0.14l14.13 4.09c0.07-0.11 0.15-0.22 0.22-0.33l0.15-0.24c0.69-1.11 1.37-2.23 2.03-3.36 0.23-0.4 0.45-0.8 0.67-1.2 0.42-0.73 0.84-1.47 1.24-2.21 0.26-0.47 0.5-0.95 0.75-1.43 0.36-0.67 0.72-1.34 1.06-2.02 0.25-0.5 0.49-1 0.73-1.51 0.32-0.66 0.65-1.32 0.96-1.99 0.24-0.51 0.46-1.02 0.69-1.53 0.3-0.66 0.61-1.33 0.89-1.99 0.22-0.52 0.43-1.04 0.64-1.56 0.28-0.67 0.56-1.33 0.82-2 0.21-0.52 0.39-1.04 0.59-1.57 0.26-0.68 0.52-1.35 0.76-2.03 0.19-0.52 0.36-1.05 0.54-1.58 0.21-0.61 0.42-1.22 0.62-1.83l-13.3-5.76c-0.26-0.08-0.41-0.35-0.33-0.61 0.25-0.87 0.48-1.73 0.7-2.6v-0.01c0.22-0.86 0.43-1.72 0.62-2.57 0.03-0.13 0.05-0.26 0.08-0.39 0.16-0.73 0.32-1.45 0.46-2.17 0.05-0.24 0.09-0.47 0.13-0.7 0.11-0.59 0.22-1.18 0.32-1.76-0.01-0.06-0.01-0.11 0-0.17 0.04-0.19 0.17-0.35 0.36-0.39l15.69-3.7c0.09-0.7 0.17-1.4 0.24-2.1 0.05-0.44 0.11-0.88 0.15-1.31 0.08-0.82 0.14-1.64 0.2-2.46 0.03-0.37 0.07-0.74 0.09-1.11 0.07-1.09 0.12-2.18 0.15-3.26 0-0.09 0.01-0.19 0.01-0.28 0.04-1.18 0.05-2.36 0.04-3.53 0-0.27-0.01-0.54-0.02-0.82-0.01-0.89-0.03-1.78-0.06-2.67-0.02-0.42-0.05-0.83-0.07-1.24-0.04-0.73-0.07-1.47-0.13-2.2-0.04-0.48-0.09-0.95-0.13-1.43-0.06-0.66-0.12-1.32-0.19-1.98-0.06-0.51-0.13-1.02-0.2-1.53-0.07-0.54-0.14-1.08-0.22-1.62l-15.71 1.22h-0.04c-0.03 0-0.05-0.01-0.07-0.01-0.03 0-0.06-0.01-0.09-0.02-0.01 0-0.02-0.01-0.04-0.02-0.09-0.04-0.17-0.1-0.22-0.19-0.03-0.05-0.05-0.1-0.06-0.16-0.22-1.03-0.45-2.06-0.71-3.06-0.11-0.44-0.24-0.86-0.36-1.3-0.15-0.56-0.3-1.12-0.46-1.66v-0.02c-0.02-0.08-0.02-0.17 0-0.26v-0.02c0.01-0.02 0-0.04 0.01-0.05s0.01-0.03 0.02-0.04c0.03-0.06 0.08-0.1 0.12-0.14 0.02-0.02 0.03-0.04 0.05-0.06l13.97-9.1c-0.15-0.44-0.3-0.87-0.46-1.3-0.16-0.46-0.33-0.92-0.5-1.37-0.21-0.55-0.43-1.08-0.66-1.62-0.17-0.43-0.34-0.86-0.53-1.28-0.24-0.56-0.5-1.11-0.76-1.67-0.18-0.38-0.35-0.77-0.53-1.15-0.3-0.62-0.62-1.23-0.94-1.84-0.16-0.3-0.3-0.6-0.46-0.9-0.48-0.9-0.99-1.78-1.5-2.65-0.07-0.11-0.14-0.22-0.21-0.33-0.46-0.75-0.92-1.5-1.41-2.23-0.2-0.3-0.41-0.59-0.61-0.88-0.36-0.53-0.73-1.07-1.11-1.59-0.25-0.34-0.5-0.66-0.76-0.99-0.31-0.41-0.62-0.82-0.94-1.22l-10.09 5.61-0.29 0.42c-0.12 0.17-0.34 0.25-0.55 0.19l-0.17-0.05-3.58 1.98c-0.05 0.04-0.1 0.07-0.16 0.09-0.02 0.01-0.03 0.01-0.05 0.01-0.04 0.01-0.07 0.02-0.11 0.02h-0.01c-0.04 0-0.08-0.01-0.12-0.03-0.02-0.01-0.05-0.01-0.07-0.02-0.06-0.03-0.12-0.07-0.16-0.12-1.48-1.63-3.08-3.18-4.75-4.59-0.21-0.17-0.23-0.48-0.07-0.69l0.08-0.1 9.63-13.75c0.02-0.03 0.04-0.05 0.06-0.07l0.76-1.09c-4.66-2.59-17.51-7.48-20.86-8.54l-9.97 13.38c-0.12 0.16-0.33 0.23-0.52 0.18-2.58-0.64-5.25-1.1-7.93-1.37-0.14-0.01-0.26-0.08-0.35-0.19-0.08-0.11-0.12-0.25-0.09-0.38l2.46-14.3c-9.08-0.33999-18.44 1.05-27.81 4.14l-1.39 13.42 0.06 0.17c0.09 0.26-0.05 0.54-0.31 0.63-2.18 0.74-4.32 1.58-6.37 2.48-1.61 0.7-3.24 1.47-4.85 2.32-0.07 0.04-0.14 0.05-0.21 0.05h-0.02c-0.01 0-0.03-0.01-0.04-0.01-0.06-0.01-0.12-0.02-0.17-0.05l-0.06-0.03c-0.07-0.04-0.13-0.1-0.17-0.17l-0.23-0.43-4.68-10.06c-8.63 4.99-16.73 11.31-24.09 18.78l4.07 11.1c0.06 0.18 0.02 0.37-0.1 0.51-2.93 3.15-5.71 6.51-8.25 10.01-0.13 0.18-0.36 0.25-0.57 0.17-0.02-0.01-0.12-0.04-0.13-0.05l-9.11-4.63c-1.12 1.64-2.16 3.22-3.16 4.83-3.91 6.27-7.28 12.85-10 19.56l9.04 4.92c0.22 0.12 0.31 0.38 0.23 0.61-1.21 3.18-2.26 6.47-3.12 9.76-0.05 0.2-0.21 0.37-0.42 0.39l-11.23 1.33c-2.14 8.81-3.2 17.65-3.14 26.3l11.18-1.62c0.14-0.02 0.28 0.02 0.39 0.11s0.17 0.22 0.18 0.36c0.09 2.35 0.28 4.66 0.58 6.86 0.09 0.7 0.19 1.38 0.3 2.07 0.03 0.18-0.04 0.36-0.19 0.47l-10.86 8.43c1.63 8.62 4.46 16.57 8.42 23.65l11.47-7.25c0.23-0.14 0.53-0.08 0.68 0.15 1.27 1.94 2.65 3.77 4.09 5.43 0.09 0.1 0.13 0.23 0.12 0.37s-0.07 0.26-0.18 0.34l-0.1 0.09-6.95 13.46c3.7 3.98 7.89 7.45 12.48 10.32 3.01 1.88 6.18 3.49 9.42 4.8l7.62-13.54c0.09-0.26 0.37-0.4 0.63-0.31 2.97 0.98 6.02 1.69 9.06 2.12 0.24 0.03 0.42 0.24 0.43 0.48l0.03 2.31v0.01l0.16 13.01 1.39 0.39c1.16 0.09 2.32 0.15 3.48 0.18 0.59 0.02 1.18 0 1.78 0 0.58 0 1.15 0.01 1.73 0 0.67-0.02 1.34-0.06 2.01-0.09 0.51-0.03 1.03-0.04 1.54-0.08 0.63-0.04 1.26-0.12 1.89-0.18 0.57-0.05 1.13-0.1 1.7-0.17 0.59-0.07 1.19-0.17 1.78-0.25 0.61-0.09 1.22-0.16 1.83-0.27 0.57-0.09 1.14-0.21 1.71-0.32 0.64-0.12 1.28-0.23 1.92-0.37 0.56-0.12 1.12-0.26 1.68-0.39 0.65-0.15 1.3-0.3 1.96-0.47 0.56-0.15 1.13-0.31 1.69-0.47 0.53-0.15 1.07-0.3 1.6-0.46l-0.6-15.56v-0.11c0-0.17 0.09-0.33 0.24-0.42 0.12-0.08 0.27-0.09 0.41-0.05 3.9-1.35 7.76-3.03 11.46-4.98 0.12-0.06 0.26-0.07 0.38-0.03 0.13 0.04 0.23 0.13 0.29 0.25l6.33 12.76zm-39.31-20.24c-5.23 0-10.37-0.84-15.29-2.59-2.68-0.94-5.29-2.18-7.76-3.67-25.1-15.19-29.74-53.59-10.37-85.61 17.01-28.09 47.22-42.61 71.86-34.55 0.02 0 0.05 0.01 0.07 0.02 3.02 0.99 5.96 2.34 8.71 4.01 12.18 7.37 19.95 20.35 21.89 36.54 1.94 16.15-2.16 33.57-11.54 49.06-13.9 22.98-36.38 36.79-57.57 36.79z" fill="#45c8da"/><path class="st33" d="m107.47 114.08 4.08 8.78c1.33-0.68 2.67-1.32 3.99-1.91z" fill="#3fcadd"/><path class="st27" d="m95.363 272.09-7.42 13.15c1.61 0.62 3.22 1.17 4.8 1.64 0.85 0.25 1.68 0.48 2.47 0.68l8.58-11.77-0.02-1.72c-2.82-0.44-5.65-1.1-8.41-1.98z" fill="#039bb3"/><path class="st34" d="m181.19 128.31c1.06 0.97 2.08 1.99 3.06 3.05l2.49-1.37z" fill="#4acada"/><path class="st27" d="m135.47 286.8c-8.41 2.59-16.73 3.84-24.86 3.72l6.26 1.74c0.03 0.01 0.05 0.02 0.08 0.03 7.78 0.24 15.8-0.8 23.88-3.09z" fill="#039bb3"/><path class="st32" d="m188.5 259.34-6.65-2.32c-8.08 8.57-17.08 15.7-26.78 21.21l7.92 1.44c9.24-5.37 17.82-12.21 25.51-20.33z" fill="#0086a1"/><path class="st35" d="m207.44 199.82-8.33-7c-0.54 3.01-1.24 6.08-2.1 9.15l8.47 3.67c0.74-1.4 1.68-4.79 1.96-5.82z" fill="#009cb3"/><path class="st36" d="m222.16 166.02-6.89-5.35c1.22 8.66 1.23 17.74 0.04 27.01l6.12 5.89c1.5-9.42 1.75-18.68 0.72999-27.55z" fill="#33bccc"/><path class="st37" d="m205.76 159.79-8.07-4.04c0.42 1.48 0.80001 3.01 1.14 4.58z" fill="#43ccd4"/><path class="st38" d="m201.79 125.96c4.19 5.76 7.52 12.3 9.92 19.48l7.26 5.05c-1.98-6.5-4.74-12.53-8.2-17.94z" fill="#4ac6d8"/><path class="st39" d="m210.45 209c-3.15 9.63-7.54 18.99-13.06 27.84l-0.15 0.24c-0.05 0.09-0.11 0.17-0.16 0.26l5.62 3.98c0.48-0.73 0.96-1.47 1.42-2.22 5.28-8.46 9.51-17.38 12.6-26.54z" fill="#039bb2"/></g>








<g transform="matrix(1.8791 0 0 1.8791 -48.493 -180.35)"><path d="m550.57 173.12v7.49l-3.74 3.74h-17.1v39.22l-3.35 3.35h-8.59l-3.35-3.35v-39.22h-18.11l-3.74-3.74v-7.49l3.74-3.74h50.5z" fill="url(#linearGradient94)"/>
	
		
		<path class="st0" d="m460.51 169.44c-15.77 0-28.55 12.78-28.55 28.55s12.78 28.55 28.55 28.55 28.55-12.78 28.55-28.55c-0.01-15.77-12.79-28.55-28.55-28.55zm16.06 31.14h-3c-0.17 0.97-0.44 1.91-0.82 2.8l2.6 1.5c-0.55 1.23-1.24 2.38-2.05 3.42l-2.6-1.51c-0.61 0.74-1.3 1.41-2.05 1.99l1.5 2.6c-1.06 0.79-2.22 1.45-3.45 1.97l-1.5-2.61c-0.87 0.34-1.79 0.59-2.74 0.74v2.99c-0.67 0.09-1.36 0.13-2.05 0.13-0.65 0-1.3-0.04-1.93-0.11v-3c-0.96-0.14-1.88-0.38-2.75-0.71l-1.5 2.61c-1.24-0.51-2.41-1.17-3.48-1.95l1.5-2.59c-0.77-0.59-1.47-1.27-2.09-2.01l-2.6 1.5c-0.82-1.04-1.52-2.19-2.06-3.41l2.59-1.49c-0.39-0.91-0.67-1.86-0.84-2.86h-3c-0.11-0.76-0.17-1.53-0.17-2.31 0-0.56 0.03-1.12 0.08-1.67h3c0.12-1.04 0.37-2.03 0.72-2.98l-2.6-1.5c0.5-1.24 1.16-2.41 1.94-3.48l2.59 1.5c0.64-0.83 1.38-1.58 2.19-2.24l-1.5-2.6c1.05-0.8 2.2-1.48 3.43-2.02l1.5 2.6c0.96-0.39 1.98-0.67 3.05-0.82v-3c0.63-0.07 1.28-0.11 1.93-0.11 0.69 0 1.38 0.04 2.05 0.13v2.99c1.06 0.17 2.07 0.46 3.03 0.85l1.5-2.59c1.22 0.54 2.37 1.22 3.41 2.04l-1.5 2.59c0.8 0.66 1.52 1.41 2.14 2.23l2.59-1.5c0.78 1.07 1.43 2.24 1.93 3.49l-2.6 1.5c0.34 0.93 0.58 1.91 0.7 2.92h3c0.05 0.55 0.08 1.11 0.08 1.67 0 0.78-0.06 1.55-0.17 2.31z" fill="url(#linearGradient95)"/>
	

	<circle class="st21" cx="460.41" cy="198.27" r="10.14" fill="#d9eff4"/>
	<g fill="#a6a4aa">
		<ellipse class="st22" cx="457.15" cy="195.73" rx=".63" ry="1.27"/>
		<ellipse class="st22" cx="463.5" cy="195.73" rx=".63" ry="1.27"/>
		<path class="st22" d="m459.61 198.33h1.49c0.39 0 0.63 0.42 0.44 0.76l-0.72 1.27c-0.19 0.34-0.67 0.34-0.87 0.01l-0.77-1.27c-0.21-0.33 0.04-0.77 0.43-0.77z"/>
	</g>
<path d="m396.05 169.76h-24.94c-1.47 1.47-2.3 2.29-3.76 3.76v49.89c1.46 1.47 2.29 2.29 3.76 3.76h24.94c7.93 0 15.11-3.21 20.3-8.41 5.2-5.19 8.41-12.37 8.41-20.3 0-15.85-12.85-28.7-28.71-28.7zm0 43.24h-11.3c-1.26-1.27-1.97-1.97-3.23-3.23v-22.61l3.23-3.23h10.88c7.82 0 14.55 6 14.94 13.8 0.41 8.35-6.26 15.27-14.52 15.27z" fill="url(#linearGradient96)"/><path d="m362.11 193.93c-1.83-14.1-13.89-24.99-28.49-24.99-15.87 0-28.74 12.86-28.74 28.73s12.87 28.74 28.74 28.74c6.98 0 13.37-2.49 18.34-6.62l-0.15-4.18-7.1-7.39h-2.54c-2.34 1.89-5.31 3.03-8.55 3.03-6.14 0-11.32-4.07-13-9.66h37.82l3.9-3.11c0.02-0.27 0.02-0.54 0.02-0.81 0-1.27-0.08-2.52-0.25-3.74zm-41.57 0.08c1.6-5.72 6.85-9.92 13.08-9.92s11.48 4.2 13.07 9.92z" fill="url(#linearGradient97)"/><polygon points="290.42 227.45 277.35 227.45 270.81 191.26 264.08 227.17 251.39 227.17 248.74 223.66 241.73 172.98 245.33 169.47 256.6 169.57 261.05 202.63 267.21 169.66 274.79 169.66 280.95 202.73 285.02 169.47 296.48 169.47 299.39 173.11 293.17 223.95" fill="url(#SVGID_00000163789698304475203470000008579991115055182754_-3)"/></g>
<g transform="matrix(1.8791 0 0 1.8791 -48.494 -160.35)">
	
		<path class="st24" d="m378.86 263.2c1-0.25 1.87-0.49 2.76-0.69 0.14-0.03 0.38 0.04 0.45 0.14 1.03 1.48 2.54 1.92 4.23 2.01 1.57 0.08 2.88-0.46 3.78-1.75 0.3-0.43 0.51-0.99 0.54-1.51 0.07-1.31 0.02-2.62 0.02-4.01-0.11 0.08-0.18 0.12-0.22 0.17-1.19 2.06-3.97 2.79-6.04 2.42-2.23-0.39-3.97-1.51-5.09-3.5-0.72-1.28-1.21-2.66-1.25-4.13-0.04-1.53-0.13-3.1 0.13-4.6 0.45-2.57 1.66-4.72 4.13-5.96 2.13-1.07 6.14-1.15 8 1.41 0.06 0.08 0.13 0.16 0.29 0.36v-2.07c1 0 1.97-0.01 2.94 0.02 0.11 0 0.31 0.26 0.31 0.39-0.02 6.74-0.03 13.48-0.09 20.22-0.01 1.13-0.57 2.1-1.32 2.94-1.36 1.54-3.09 2.26-5.11 2.44-2.01 0.18-3.92-0.15-5.71-1.08-1.32-0.67-2.18-1.77-2.75-3.22zm2.11-12.49c0.26 1.17 0.43 2.45 0.85 3.65 0.69 1.93 2.75 3.2 4.66 2.91 2.03-0.31 3.37-1.47 3.77-3.65 0.37-2 0.34-4.05 0.02-6.07-0.43-2.64-2.28-4.02-4.85-3.56-1.95 0.35-3.3 1.46-3.8 3.42-0.27 1.04-0.42 2.11-0.65 3.3z"/>
	
	
		<path class="st24" d="m301.35 259.6h-3.12v-0.86c-0.03-3.94-0.06-7.88-0.1-11.83-0.01-1.33-0.68-2.31-1.88-2.76-1.31-0.49-2.61-0.35-3.68 0.73-0.72 0.72-1.03 1.56-1.03 2.56 0.01 3.8 0 7.59 0 11.39v0.77h-3.09v-18.08h2.69v1.44c1.37-1.38 3-1.99 4.86-1.88 1.93 0.11 3.33 1.18 4.31 2.65 0.75-0.66 1.43-1.42 2.26-1.95 2.27-1.45 5.61-0.63 7.25 1.55 0.77 1.03 1.22 2.17 1.22 3.46 0.03 4.07 0.04 8.14 0.05 12.21 0 0.19-0.03 0.38-0.06 0.59h-3.03c-0.02-0.4-0.05-0.8-0.05-1.19 0-3.73-0.06-7.46 0.03-11.19 0.05-1.99-1.9-3.8-4.06-3.18-1.79 0.51-2.53 1.74-2.54 3.24-0.03 3.82-0.02 7.63-0.03 11.45v0.88z"/>
	
	
		<path class="st24" d="m264.34 251.09h-6.76c0-0.88-0.02-1.69 0.02-2.51 0.01-0.11 0.27-0.31 0.42-0.31 3.02-0.02 6.03-0.02 9.05 0 0.15 0 0.44 0.23 0.43 0.34-0.09 2.28-0.59 4.47-1.65 6.49-0.94 1.79-2.32 3.15-4.17 3.98-3.29 1.49-6.56 1.39-9.73-0.31-2.07-1.11-3.46-2.88-4.31-5.05-1.07-2.74-1.3-5.59-0.88-8.47 0.19-1.32 0.45-2.68 0.94-3.91 1.08-2.72 2.98-4.7 5.81-5.7 1.21-0.43 2.46-0.62 3.73-0.62 1.77 0.01 3.43 0.46 4.96 1.33 1.9 1.07 3.23 2.66 4.15 4.65-0.82 0.37-1.62 0.76-2.44 1.09-0.11 0.04-0.41-0.15-0.48-0.3-0.68-1.34-1.66-2.39-3.01-3.05-1.53-0.74-3.13-0.93-4.81-0.58-2.86 0.59-4.47 2.47-5.3 5.12-1.03 3.31-0.94 6.59 0.48 9.77 1.41 3.16 3.78 4.23 6.93 4.07 3.02-0.16 5.01-1.87 6.12-4.63 0.09-0.21 0.18-0.43 0.25-0.64 0.08-0.21 0.14-0.43 0.25-0.76z"/>
	
	
		<path class="st24" d="m328.04 253.92c0.87 0.57 1.72 1.12 2.61 1.69-1.7 2.24-3.63 4-6.61 4.3-2.21 0.22-4.33 0.09-6.24-1.1-2.07-1.28-3.2-3.21-3.65-5.6-0.38-2.01-0.38-4 0.15-5.97 0.47-1.76 1.27-3.36 2.75-4.5 1.64-1.26 3.54-1.73 5.59-1.69 2.2 0.04 4.15 0.75 5.72 2.31 0.95 0.95 1.63 2.12 1.92 3.44 0.3 1.37 0.43 2.78 0.63 4.17 0.06 0.43-0.09 0.61-0.55 0.61-4.16-0.01-8.33 0-12.49 0h-0.63c0 1.88 0.92 4.05 2.5 4.91 1.49 0.81 3.08 0.83 4.68 0.46 1.68-0.38 2.61-1.73 3.62-3.03zm-0.51-5.19c-0.5-3.82-3.32-5.26-6.38-4.72-2.38 0.41-3.8 2.71-3.83 4.72h10.21z"/>
	
	
		<path class="st24" d="m344 251.63c-0.26 1.82 1.05 4.33 2.67 5.04 1.49 0.65 3.04 0.67 4.6 0.24 1.6-0.44 2.49-1.7 3.44-2.97 0.87 0.56 1.71 1.1 2.61 1.68-1.77 2.21-3.64 4.04-6.64 4.3-2.01 0.17-3.91 0.08-5.74-0.83-1.92-0.95-3.11-2.56-3.76-4.51-0.92-2.76-0.92-5.58 0.1-8.33 1.03-2.79 3.01-4.48 5.98-5.02 2.05-0.37 3.99-0.16 5.85 0.76 2.09 1.04 3.31 2.81 3.88 4.99 0.34 1.27 0.4 2.62 0.57 3.94 0.06 0.49-0.09 0.69-0.66 0.68-4.12-0.03-8.24-0.02-12.36-0.02-0.18 0.01-0.37 0.03-0.54 0.05zm10.18-2.9c-0.58-3.99-3.14-4.91-5.44-4.83-3.48 0.13-4.62 2.79-4.77 4.83h10.21z"/>
	
	
		<path class="st24" d="m437.53 253.94c0.87 0.57 1.69 1.11 2.55 1.68-1.67 2.22-3.56 3.96-6.46 4.29-1.76 0.2-3.45 0.13-5.12-0.47-1.82-0.65-3.19-1.88-3.99-3.58-1.62-3.45-1.66-6.99-0.04-10.47 1.29-2.78 3.63-4.07 6.6-4.28 1.66-0.12 3.28 0.06 4.79 0.86 2.05 1.08 3.26 2.8 3.92 4.97 0.46 1.49 0.57 3.02 0.49 4.65h-13.53c-0.09 1.84 0.83 4.09 2.61 5.01 1.46 0.76 3.04 0.78 4.63 0.34 1.63-0.47 2.58-1.75 3.55-3zm-10.74-5.21h10.14c-0.4-3.22-2.19-4.79-5.12-4.83-3.19-0.05-4.81 2.12-5.02 4.83z"/>
	
	
		<path class="st24" d="m270.61 245.47c0.29-1.2 1.03-2 1.87-2.72 2.1-1.78 4.58-2.16 7.1-1.41 2.38 0.71 3.99 2.45 4.53 4.93 0.31 1.39 0.48 2.84 0.52 4.27 0.08 2.99 0.02 5.98 0.02 9.03h-2.58v-2.56c-0.98 1.27-2.13 2.06-3.49 2.51-2.16 0.71-4.31 0.91-6.34-0.4-1.71-1.1-2.6-3.27-2.25-5.28 0.39-2.2 1.81-3.51 3.8-4.15 1.98-0.64 4.03-1.08 6.06-1.54 1.66-0.37 1.8-1.33 0.9-2.59-1.72-2.39-5.59-2.37-7.12 0.64-0.24 0.47-0.38 0.52-0.83 0.26-0.68-0.38-1.42-0.65-2.19-0.99zm11.3 5.1c-1.86 0.45-3.65 0.82-5.4 1.32-0.89 0.26-1.78 0.65-2.54 1.18-0.82 0.56-0.96 1.58-0.63 2.5 0.37 1.01 1.12 1.5 2.15 1.59 1.97 0.18 3.63-0.48 4.86-2.03 1.01-1.29 1.62-2.76 1.56-4.56z"/>
	
	
		<path class="st24" d="m408.81 259.62c-0.92 0-1.81 0.02-2.69-0.02-0.14-0.01-0.29-0.25-0.4-0.41-0.05-0.07-0.01-0.21-0.01-0.31 0-5.58-0.01-11.15-0.01-16.73 0-0.19 0.02-0.37 0.04-0.6h2.77v2.09c0.18-0.15 0.3-0.22 0.38-0.31 1.54-1.84 3.53-2.42 5.85-2.12 3.37 0.44 5.86 3.68 5.81 6.87-0.06 3.63-0.01 7.25-0.02 10.88 0 0.21-0.02 0.41-0.03 0.67-0.93 0-1.81 0.02-2.7-0.02-0.13 0-0.3-0.22-0.36-0.37-0.06-0.14-0.02-0.33-0.02-0.5v-11.07c0-1.33-1.14-2.92-2.54-3.42-2.21-0.8-4.7 0.16-5.61 2.34-0.29 0.68-0.43 1.47-0.43 2.21-0.05 3.58-0.03 7.16-0.03 10.82z"/>
	
	
		<path class="st24" d="m375.25 259.6h-3.07v-0.77-10.62c0-1.87-0.85-3.25-2.58-3.94-1.48-0.6-2.93-0.35-4.25 0.6-1.4 1-1.78 2.45-1.79 4.04-0.03 3.54-0.01 7.08-0.01 10.67h-3.07v-18.02h2.75v2.11c0.51-0.47 0.93-0.91 1.41-1.29 1.46-1.17 3.13-1.43 4.95-1.16 2.11 0.31 3.58 1.53 4.7 3.22 0.83 1.25 1.01 2.71 1.01 4.19-0.01 3.52-0.01 7.04-0.01 10.56-0.01 0.12-0.03 0.24-0.04 0.41z"/>
	
	
	
		<path class="st24" d="m401.26 259.6h-3.06v-0.65c0-5.62 0.02-11.24 0-16.85 0-0.49 0.14-0.61 0.61-0.59 0.8 0.04 1.6 0.01 2.45 0.01v18.08z"/>
	
		<path class="st24" d="m401.79 236.64c-0.01 1.12-0.87 2-2.02 1.97-1.34-0.03-1.99-0.83-2.07-2.09-0.07-1.11 0.94-2 2.1-1.98 1.16 0.01 2 0.91 1.99 2.1z"/>
	
</g>
<metadata><rdf:RDF><cc:Work rdf:about=""><dc:title>wedot-logo</dc:title><dc:date>2024.10.29</dc:date><dc:creator><cc:Agent><dc:title>Xiwoof</dc:title></cc:Agent></dc:creator><dc:rights><cc:Agent><dc:title>© Xiwoof, Licensed under CC BY 4.0</dc:title></cc:Agent></dc:rights><dc:publisher><cc:Agent><dc:title>Xiwoof</dc:title></cc:Agent></dc:publisher><dc:subject><rdf:Bag><rdf:li>wedot logo</rdf:li><rdf:li>icon</rdf:li></rdf:Bag></dc:subject><dc:coverage>用于Wedot项目的Logo</dc:coverage><dc:description>此为wedot的logo，横板带文字透明版本</dc:description><cc:license rdf:resource="https://creativecommons.org/licenses/by/4.0/"/></cc:Work></rdf:RDF></metadata></svg>
